<svg width="26" height="18" viewBox="0 0 26 18" fill="none" xmlns="http://www.w3.org/2000/svg">
<rect x="0.5" y="0.5" width="25" height="17" rx="3.5" fill="white"/>
<rect x="0.5" y="0.5" width="25" height="17" rx="3.5" stroke="#F2F4F7"/>
<path fillRule="evenodd" clipRule="evenodd" d="M13.0002 13.1006C12.056 13.9232 10.8313 14.4198 9.49296 14.4198C6.50675 14.4198 4.08594 11.9473 4.08594 8.89739C4.08594 5.84746 6.50675 3.375 9.49296 3.375C10.8313 3.375 12.056 3.8716 13.0002 4.69422C13.9444 3.8716 15.1692 3.375 16.5075 3.375C19.4937 3.375 21.9145 5.84746 21.9145 8.89739C21.9145 11.9473 19.4937 14.4198 16.5075 14.4198C15.1692 14.4198 13.9444 13.9232 13.0002 13.1006Z" fill="#ED0006"/>
<path fillRule="evenodd" clipRule="evenodd" d="M13 13.1006C14.1626 12.0876 14.8998 10.5804 14.8998 8.89739C14.8998 7.21433 14.1626 5.70713 13 4.69422C13.9442 3.8716 15.1689 3.375 16.5073 3.375C19.4935 3.375 21.9143 5.84746 21.9143 8.89739C21.9143 11.9473 19.4935 14.4198 16.5073 14.4198C15.1689 14.4198 13.9442 13.9232 13 13.1006Z" fill="#F9A000"/>
<path fillRule="evenodd" clipRule="evenodd" d="M12.9994 13.1006C14.1619 12.0877 14.8991 10.5805 14.8991 8.89748C14.8991 7.21444 14.1619 5.70724 12.9994 4.69434C11.8368 5.70724 11.0996 7.21444 11.0996 8.89748C11.0996 10.5805 11.8368 12.0877 12.9994 13.1006Z" fill="#FF5E00"/>
</svg>
