<svg width="26" height="14" viewBox="0 0 26 14" fill="none" xmlns="http://www.w3.org/2000/svg">
<path fillRule="evenodd" clipRule="evenodd" d="M10.6362 1.54321H2.87443C2.46226 1.55181 2.06988 1.72158 1.78142 2.01612C1.49297 2.31065 1.33142 2.70649 1.33142 3.11874C1.33142 3.531 1.49297 3.92684 1.78142 4.22137C2.06988 4.51591 2.46226 4.68568 2.87443 4.69428H6.8316L0.461582 11.0653C0.166036 11.3609 0 11.7617 0 12.1797C0 12.5976 0.166036 12.9985 0.461582 13.294C0.757129 13.5896 1.15798 13.7556 1.57594 13.7556C1.99391 13.7556 2.39475 13.5896 2.6903 13.294L9.06031 6.92334V10.8809C9.06031 11.2988 9.22634 11.6996 9.52188 11.9952C9.81741 12.2907 10.2182 12.4567 10.6362 12.4567C11.0541 12.4567 11.455 12.2907 11.7505 11.9952C12.046 11.6996 12.2121 11.2988 12.2121 10.8809V3.11909C12.2121 2.70114 12.046 2.30031 11.7505 2.00478C11.455 1.70924 11.0541 1.54321 10.6362 1.54321Z" fill="#232A34"/>
<path fillRule="evenodd" clipRule="evenodd" d="M15.363 12.4564H23.1244C23.3341 12.4608 23.5425 12.4233 23.7375 12.3461C23.9325 12.2689 24.1101 12.1535 24.2599 12.0068C24.4097 11.8601 24.5288 11.6849 24.61 11.4916C24.6913 11.2982 24.7332 11.0906 24.7332 10.8809C24.7332 10.6712 24.6913 10.4636 24.61 10.2703C24.5288 10.0769 24.4097 9.90178 24.2599 9.75504C24.1101 9.60831 23.9325 9.49295 23.7375 9.41574C23.5425 9.33853 23.3341 9.30101 23.1244 9.30539H19.1676L25.5376 2.93468C25.8331 2.63914 25.9992 2.23829 25.9992 1.82033C25.9992 1.40236 25.8331 1.00151 25.5376 0.705967C25.242 0.410421 24.8412 0.244385 24.4232 0.244385C24.0053 0.244385 23.6044 0.410421 23.3089 0.705967L16.9389 7.07667V3.11881C16.9389 2.70086 16.7728 2.30003 16.4773 2.0045C16.1818 1.70897 15.7809 1.54294 15.363 1.54294C14.945 1.54294 14.5442 1.70897 14.2487 2.0045C13.9531 2.30003 13.7871 2.70086 13.7871 3.11881V10.8802C13.7871 11.2982 13.9531 11.699 14.2487 11.9945C14.5442 12.2901 14.945 12.4561 15.363 12.4561" fill="#FF7900"/>
</svg>
