<svg width="21" height="24" viewBox="0 0 21 24" fill="none" xmlns="http://www.w3.org/2000/svg">
<path opacity="0.999" fillRule="evenodd" clipRule="evenodd" d="M4.12793 0C7.75291 0 11.3779 0 15.0029 0C14.9951 1.60945 15.0029 3.21883 15.0264 4.82812C15.2716 5.56608 15.7794 5.95669 16.5498 6C18.0185 7.5 19.5029 8.98439 21.0029 10.4531C21.0108 14.5938 21.0029 18.7344 20.9795 22.875C20.9142 23.1428 20.7892 23.3772 20.6045 23.5781C20.3889 23.7715 20.1467 23.9122 19.8779 24C14.6279 24 9.37793 24 4.12793 24C3.68641 23.8477 3.35046 23.5665 3.12012 23.1562C3.08887 23.0625 3.05762 22.9688 3.02637 22.875C3.00294 22.2502 2.99512 21.6252 3.00293 21C7.81545 21.0078 12.628 21 17.4404 20.9766C17.66 20.9133 17.8241 20.7805 17.9326 20.5781C17.9968 20.2855 18.0203 19.9887 18.0029 19.6875C18.0108 17.0468 18.0029 14.4062 17.9795 11.7656C17.8737 11.5192 17.694 11.3551 17.4404 11.2734C12.628 11.25 7.81545 11.2422 3.00293 11.25C2.99512 7.87495 3.00293 4.49996 3.02637 1.125C3.09163 0.85717 3.21663 0.622795 3.40137 0.421875C3.61699 0.228459 3.85915 0.0878339 4.12793 0Z" fill="#E1E4E6"/>
<path fillRule="evenodd" clipRule="evenodd" d="M15.0029 0C15.0185 0 15.0342 0 15.0498 0C17.0186 1.98437 18.9873 3.96875 20.9561 5.95312C19.4953 5.99991 18.0266 6.01556 16.5498 6C15.7794 5.95669 15.2716 5.56608 15.0264 4.82812C15.0029 3.21883 14.9951 1.60945 15.0029 0Z" fill="#B0B7BD"/>
<path fillRule="evenodd" clipRule="evenodd" d="M20.9531 5.95312C20.9999 7.44511 21.0156 8.94511 21 10.4531C19.5 8.98439 18.0156 7.5 16.5469 6C18.0236 6.01556 19.4924 5.99991 20.9531 5.95312Z" fill="#C9D0D7"/>
<path opacity="0.999" fillRule="evenodd" clipRule="evenodd" d="M3 11.2529C7.81252 11.2451 12.625 11.2529 17.4375 11.2764C17.6911 11.3581 17.8708 11.5221 17.9766 11.7686C18 14.4091 18.0078 17.0498 18 19.6904C17.8992 19.9552 17.7117 20.1349 17.4375 20.2295C12.625 20.2529 7.81252 20.2608 3 20.2529C2.15611 20.2608 1.31236 20.2529 0.468751 20.2295C0.257814 20.1436 0.109375 19.9951 0.0234387 19.7842C-0.00781289 17.0967 -0.00781289 14.4092 0.0234387 11.7217C0.109375 11.5107 0.257814 11.3623 0.468751 11.2764C1.31236 11.2529 2.15611 11.2451 3 11.2529Z" fill="#FF3B30"/>
<path d="M3.96195 12.916C4.34595 12.916 4.68195 12.9693 4.96995 13.076C5.25795 13.1773 5.47929 13.316 5.63395 13.492C5.79395 13.668 5.91129 13.8573 5.98595 14.06C6.06062 14.2573 6.09795 14.468 6.09795 14.692C6.09795 14.916 6.06062 15.1293 5.98595 15.332C5.91129 15.5293 5.79395 15.716 5.63395 15.892C5.47929 16.068 5.25795 16.2093 4.96995 16.316C4.68195 16.4173 4.34595 16.468 3.96195 16.468H2.50595V18.5H1.77795V12.916H3.96195ZM3.88995 15.78C4.43395 15.78 4.81529 15.676 5.03395 15.468C5.25795 15.26 5.36995 15.0013 5.36995 14.692C5.36995 14.3827 5.25795 14.124 5.03395 13.916C4.81529 13.708 4.43395 13.604 3.88995 13.604H2.50595V15.78H3.88995ZM9.09752 12.916C9.55618 12.916 9.96952 12.9987 10.3375 13.164C10.7108 13.324 11.0095 13.54 11.2335 13.812C11.6922 14.3613 11.9215 14.9933 11.9215 15.708C11.9215 16.2787 11.7722 16.7987 11.4735 17.268C11.1482 17.7853 10.6975 18.1427 10.1215 18.34C9.80685 18.4467 9.46552 18.5 9.09752 18.5H7.12952V12.916H9.09752ZM9.00952 17.82C9.67085 17.82 10.2015 17.6253 10.6015 17.236C11.0015 16.8467 11.2015 16.3373 11.2015 15.708C11.2015 15.0787 11.0015 14.5693 10.6015 14.18C10.2015 13.7907 9.67085 13.596 9.00952 13.596H7.85752V17.82H9.00952ZM13.1295 12.916H16.9055V13.596H13.8575V15.364H16.6255V16.044H13.8575V18.5H13.1295V12.916Z" fill="white"/>
<path fillRule="evenodd" clipRule="evenodd" d="M18 19.6875C18.0173 19.9887 17.9939 20.2855 17.9297 20.5781C17.8212 20.7805 17.6571 20.9133 17.4375 20.9766C12.625 21 7.81252 21.0078 3 21C3 20.75 3 20.5 3 20.25C7.81252 20.2578 12.625 20.25 17.4375 20.2266C17.7117 20.1319 17.8992 19.9522 18 19.6875Z" fill="#C9D1D8"/>
</svg>
