<svg width="21" height="24" viewBox="0 0 21 24" fill="none" xmlns="http://www.w3.org/2000/svg">
<path opacity="0.999" fillRule="evenodd" clipRule="evenodd" d="M4.12793 0C7.75291 0 11.3779 0 15.0029 0C14.9951 1.60945 15.0029 3.21883 15.0264 4.82812C15.2716 5.56608 15.7794 5.95669 16.5498 6C18.0185 7.5 19.5029 8.98439 21.0029 10.4531C21.0108 14.5938 21.0029 18.7344 20.9795 22.875C20.9142 23.1428 20.7892 23.3772 20.6045 23.5781C20.3889 23.7715 20.1467 23.9122 19.8779 24C14.6279 24 9.37793 24 4.12793 24C3.68641 23.8477 3.35046 23.5665 3.12012 23.1562C3.08887 23.0625 3.05762 22.9688 3.02637 22.875C3.00294 22.2502 2.99512 21.6252 3.00293 21C7.81545 21.0078 12.628 21 17.4404 20.9766C17.66 20.9133 17.8241 20.7805 17.9326 20.5781C17.9968 20.2855 18.0203 19.9887 18.0029 19.6875C18.0108 17.0468 18.0029 14.4062 17.9795 11.7656C17.8737 11.5192 17.694 11.3551 17.4404 11.2734C12.628 11.25 7.81545 11.2422 3.00293 11.25C2.99512 7.87495 3.00293 4.49996 3.02637 1.125C3.09163 0.85717 3.21663 0.622795 3.40137 0.421875C3.61699 0.228459 3.85915 0.0878339 4.12793 0Z" fill="#E1E4E6"/>
<path fillRule="evenodd" clipRule="evenodd" d="M15.0029 0C15.0185 0 15.0342 0 15.0498 0C17.0186 1.98437 18.9873 3.96875 20.9561 5.95312C19.4953 5.99991 18.0266 6.01556 16.5498 6C15.7794 5.95669 15.2716 5.56608 15.0264 4.82812C15.0029 3.21883 14.9951 1.60945 15.0029 0Z" fill="#B0B7BD"/>
<path fillRule="evenodd" clipRule="evenodd" d="M20.9531 5.95312C20.9999 7.44511 21.0156 8.94511 21 10.4531C19.5 8.98439 18.0156 7.5 16.5469 6C18.0236 6.01556 19.4924 5.99991 20.9531 5.95312Z" fill="#C9D0D7"/>
<path opacity="0.999" fillRule="evenodd" clipRule="evenodd" d="M3 11.2529C7.81252 11.2451 12.625 11.2529 17.4375 11.2764C17.6911 11.3581 17.8708 11.5221 17.9766 11.7686C18 14.4091 18.0078 17.0498 18 19.6904C17.8992 19.9552 17.7117 20.1349 17.4375 20.2295C12.625 20.2529 7.81252 20.2608 3 20.2529C2.15611 20.2608 1.31236 20.2529 0.468751 20.2295C0.257814 20.1436 0.109375 19.9951 0.0234387 19.7842C-0.00781289 17.0967 -0.00781289 14.4092 0.0234387 11.7217C0.109375 11.5107 0.257814 11.3623 0.468751 11.2764C1.31236 11.2529 2.15611 11.2451 3 11.2529Z" fill="#007AFF"/>
<path d="M3.59 13.114C3.926 13.114 4.22 13.1607 4.472 13.254C4.724 13.3427 4.91767 13.464 5.053 13.618C5.193 13.772 5.29567 13.9377 5.361 14.115C5.42633 14.2877 5.459 14.472 5.459 14.668C5.459 14.864 5.42633 15.0507 5.361 15.228C5.29567 15.4007 5.193 15.564 5.053 15.718C4.91767 15.872 4.724 15.9957 4.472 16.089C4.22 16.1777 3.926 16.222 3.59 16.222H2.316V18H1.679V13.114H3.59ZM3.527 15.62C4.003 15.62 4.33667 15.529 4.528 15.347C4.724 15.165 4.822 14.9387 4.822 14.668C4.822 14.3973 4.724 14.171 4.528 13.989C4.33667 13.807 4.003 13.716 3.527 13.716H2.316V15.62H3.527ZM9.98762 13.114H10.6246V18H9.84062L7.01262 13.975H6.99862V18H6.36162V13.114H7.14562L9.96662 17.132H9.98762V13.114ZM14.1718 15.319H16.0128V17.531C15.4108 17.8903 14.7878 18.07 14.1438 18.07C13.4111 18.07 12.8184 17.8367 12.3658 17.37C11.9131 16.9033 11.6868 16.299 11.6868 15.557C11.6868 14.815 11.9201 14.2107 12.3868 13.744C12.8534 13.2773 13.4134 13.044 14.0668 13.044C14.7248 13.044 15.3478 13.2237 15.9358 13.583V14.241H15.9078C15.3338 13.8537 14.7668 13.66 14.2068 13.66C13.6514 13.66 13.1988 13.828 12.8488 14.164C12.4988 14.5 12.3238 14.9573 12.3238 15.536C12.3238 16.11 12.4941 16.5767 12.8348 16.936C13.1754 17.2907 13.6398 17.468 14.2278 17.468C14.6664 17.468 15.0748 17.3653 15.4528 17.16V15.893H14.1718V15.319Z" fill="white"/>
<path fillRule="evenodd" clipRule="evenodd" d="M18 19.6875C18.0173 19.9887 17.9939 20.2855 17.9297 20.5781C17.8212 20.7805 17.6571 20.9133 17.4375 20.9766C12.625 21 7.81252 21.0078 3 21C3 20.75 3 20.5 3 20.25C7.81252 20.2578 12.625 20.25 17.4375 20.2266C17.7117 20.1319 17.8992 19.9522 18 19.6875Z" fill="#C9D1D8"/>
</svg>
