<svg width="703" height="604" viewBox="0 0 703 604" fill="none" xmlns="http://www.w3.org/2000/svg">
<path fillRule="evenodd" clipRule="evenodd" d="M404.439 600.534C335.128 615.531 273.034 561.209 208.705 533.646C135.156 502.133 3.00946 501.051 0.34443 427.394C-2.90341 337.629 166.19 317.903 197.816 232.708C220.016 172.905 100.749 108.59 138.406 55.476C173.705 5.68744 265.776 56.4595 330.1 46.1254C383.49 37.5477 427.164 -2.01935 481.299 0.387085C541.864 3.0793 607.792 18.1775 646.705 60.1989C685.449 102.039 674.631 163.292 682.326 217.476C689.813 270.196 717.481 325.924 691.201 373.524C665.052 420.885 592.378 425.298 548.336 460.163C494.156 503.054 474.411 585.395 404.439 600.534Z" fill="#CCC9EA"/>
</svg>
